<svg width="686" height="198" viewBox="0 0 686 198" fill="none" xmlns="http://www.w3.org/2000/svg">
<g clip-path="url(#clip0_702_48)">
<path d="M518.441 150.165C518.441 150.165 505.141 173.19 487.122 173.19C483.576 173.19 467.03 169.945 467.629 145.435C468.816 100.271 485.649 78.1188 499.235 78.1188C503.668 78.1188 505.141 81.9628 505.141 83.7219C505.141 96.127 495.688 97.8992 495.688 109.105C495.688 116.78 503.955 121.511 510.461 121.511C520.501 121.511 530.254 107.933 530.554 95.5276C531.14 77.8191 516.081 64.2282 496.288 64.2282C467.629 64.2282 447.25 82.2365 433.364 114.122C425.384 132.43 423.024 148.367 411.498 164.603C405.005 173.164 398.499 177.894 393.779 177.894C386.099 177.894 390.232 163.43 391.706 158.113L412.385 86.3671C413.571 82.2364 417.405 79.2785 422.138 79.2785H433.951C437.497 79.2785 439.27 76.92 439.27 74.8481C439.27 72.4896 437.497 70.118 433.951 70.118H417.405C417.405 70.118 424.198 48.8652 424.198 46.7933C424.198 45.3209 424.198 43.8354 423.611 42.9493C422.425 41.4768 420.951 41.1771 419.478 42.0632C398.799 55.0547 387.872 59.7718 360.4 68.3328C357.153 69.5186 356.267 73.3496 359.213 75.4215C365.12 79.2655 367.48 84.2822 366.007 89.299C364.533 94.9022 357.14 116.754 357.14 116.754C350.047 136.835 339.708 152.771 329.668 163.404C321.102 172.551 314.009 177.868 308.989 177.868C300.122 177.868 306.916 161.632 308.102 158.087C310.175 152.185 333.214 84.2822 334.688 77.4933C336.161 71.2908 331.728 68.3459 327.895 68.3459H291.269C288.31 68.3459 285.95 70.118 284.476 73.3626C282.703 77.2066 263.797 140.679 246.077 162.231C242.831 166.362 238.398 168.72 235.151 168.72C232.491 168.72 230.718 167.834 231.305 165.176C232.191 160.159 251.684 106.134 253.757 99.932C259.364 84.5819 259.964 69.2319 236.325 68.3459C209.439 67.7595 208.552 68.3459 208.552 73.3626C211.512 102.89 195.553 130.345 186.987 157.201C175.76 192.332 199.686 197.948 210.626 197.948C238.398 197.948 256.117 170.193 265.57 148.054C270.59 136.835 274.436 127.974 275.91 124.429C276.497 122.957 277.383 122.657 277.983 122.657C278.583 122.657 279.169 122.957 278.87 124.429C277.509 128.843 273.911 138.457 266.17 160.746C255.83 188.501 274.198 197.948 291.869 197.948C319.042 197.948 335.301 172.564 341.794 163.117C343.267 161.045 343.867 161.345 343.567 163.117C341.494 171.978 343.567 197.948 373.113 197.948C402.058 197.948 416.244 172.851 422.737 163.117C423.924 161.345 424.511 161.345 424.511 163.117C424.211 171.092 430.117 197.948 467.056 197.948C494.828 197.948 514.62 177.581 524.36 153.37C527.607 145.448 522.587 142.49 518.441 150.165ZM127.909 1.06906C106.056 -0.403398 47.5648 -0.103695 27.7722 0.482681C25.1123 0.782384 23.0392 3.14092 23.0392 5.49945C22.7393 8.45739 24.8125 10.8159 26.8856 12.5881C31.3187 16.4321 36.9253 19.377 34.5653 31.1827C28.359 52.7352 17.7195 88.4651 11.813 110.018C23.6259 100.271 45.1918 90.5369 67.0575 89.6508L89.51 6.98493H104.57C135.888 6.98493 148.588 21.4489 148.588 50.6764C148.588 110.904 112.249 170.831 59.9645 170.831C44.3052 170.831 23.6259 164.042 23.6259 146.334C23.6259 120.651 51.9849 105.887 75.6239 105.887C83.6035 105.887 91.87 107.359 100.436 110.904C106.043 113.262 109.003 113.562 110.476 111.79C111.663 110.018 110.176 108.245 105.156 105.887C95.4034 101.457 83.5905 97.9122 70.8909 98.2119C40.1719 99.085 0 117.693 0 152.237C0 181.464 29.5455 198 67.9441 198C138.848 198 192.306 137.186 194.08 78.4315C194.966 48.9043 183.74 5.21278 127.909 1.06906ZM677.968 148.979C675.308 153.409 671.475 159.013 667.042 164.629C660.835 171.717 654.929 178.207 648.136 178.207C642.229 178.207 648.436 161.97 650.209 158.126C659.662 135.688 672.961 110.891 672.961 90.2242C672.961 75.4605 663.208 64.5409 648.149 64.5409C617.13 64.5409 593.504 112.363 581.978 140.418C581.678 141.304 580.791 142.19 579.905 142.19C579.018 142.19 578.431 141.304 578.718 140.418C579.305 138.646 617.417 10.5162 617.417 8.45739C617.417 5.49945 616.23 4.61337 613.284 4.61337C595.564 4.61337 573.398 6.68523 561.586 8.45739C558.926 8.75709 555.679 12.3014 558.339 15.2463C563.072 19.9764 566.605 28.2378 564.545 35.0267C563.959 37.3852 528.207 166.987 523.187 185.595C521.714 191.498 523.187 193.27 527.92 193.27H563.659C566.618 193.27 569.565 191.498 570.452 188.54C571.039 186.468 590.244 132.157 607.964 106.76C613.284 99.085 617.717 94.6546 621.85 94.0682C625.983 93.4818 627.457 95.254 625.983 100.271C623.91 107.06 613.284 135.988 606.191 154.882C602.944 164.029 600.284 172.004 600.284 176.734C600.284 191.498 615.644 197.987 629.53 197.987C656.415 197.987 673.548 176.135 684.774 152.224C688.595 144.562 682.688 141.304 677.968 148.979Z" fill="white"/>
</g>
<defs>
<clipPath id="clip0_702_48">
<rect width="686" height="198" fill="white"/>
</clipPath>
</defs>
</svg>
