<svg width="66" height="28" viewBox="0 0 66 28" fill="none" xmlns="http://www.w3.org/2000/svg">
<path d="M4.19759 13.3419H8.71988C10.2876 13.3419 11.4594 12.8995 12.2383 12.1435C13.016 11.3881 13.4392 10.2845 13.4392 8.88594C13.4392 6.68553 11.732 4.72492 9.11336 4.72492H4.19759V13.3419ZM55.5595 10.1693C53.7996 10.1693 52.4797 11.0002 51.5893 12.3034C50.692 13.6164 50.2298 15.4128 50.2298 17.3115C50.2298 18.9022 50.6288 20.7227 51.5094 22.1349C52.3837 23.5366 53.7222 24.5262 55.6313 24.5262C57.4525 24.5262 58.7154 23.6165 59.5377 22.252C60.3674 20.8745 60.7429 19.0372 60.7429 17.239C60.7429 15.072 60.2007 13.2979 59.2867 12.0735C58.3777 10.8558 57.0931 10.1699 55.5588 10.1699L55.5595 10.1693ZM9.9654 2.49538C12.1838 2.49538 14.0985 3.13425 15.4643 4.26327C16.8343 5.39601 17.6368 7.01085 17.6368 8.91941C17.6368 11.0126 16.8845 12.6312 15.5609 13.7459C14.4059 14.7194 12.8381 15.2895 11.0126 15.4816C11.0101 15.4816 10.9785 15.486 10.9785 15.486C13.8209 17.9875 16.2853 21.7024 18.653 26.2829L18.8761 26.7142H14.2435L14.1611 26.5531C11.5592 21.4793 8.98137 17.7496 5.88368 15.6415C5.81676 15.5956 5.73744 15.5721 5.65627 15.5721H4.19883V26.7142H0V2.49538H9.9654ZM43.7233 26.7142H39.6837V0H43.7233V26.7142ZM54.7607 7.61874C56.111 7.61874 57.6229 7.93724 58.9391 8.81096C59.7694 9.36246 60.5137 10.1302 61.0868 11.1638L60.746 7.98186H65V26.7142H60.7466L61.0949 23.3953C60.4114 24.6594 59.5191 25.5084 58.6032 26.0679C57.2617 26.8877 55.8897 27.0773 55.0873 27.0773C51.9741 27.0773 49.7278 25.8987 48.266 24.0875C46.8117 22.2849 46.1549 19.8825 46.1549 17.4571C46.1549 14.3668 47.0998 11.9056 48.6602 10.2133C50.2211 8.52034 52.3794 7.61936 54.7613 7.61936L54.7607 7.61874ZM24.0819 7.98248V19.8162C24.0819 21.2569 24.4512 22.4423 25.1421 23.2627C25.8269 24.0757 26.8555 24.5634 28.2497 24.5634C29.7884 24.5634 30.9552 23.9096 31.7446 22.8909C32.5403 21.8648 32.9616 20.4538 32.9616 18.9449V7.98248H37.0012V26.7148H32.9362L33.1748 23.8725C32.7132 24.7177 32.1586 25.3925 31.4856 25.9018C30.413 26.7136 29.0739 27.0773 27.4151 27.0773C25.0851 27.0773 23.233 26.3585 21.9639 25.056C20.6961 23.7547 20.0429 21.905 20.0429 19.7065V7.98186H24.0825L24.0819 7.98248Z" fill="white"/>
</svg>
